<?xml version="1.0" standalone="no"?>
<!DOCTYPE svg PUBLIC "-//W3C//DTD SVG 20010904//EN"
 "http://www.w3.org/TR/2001/REC-SVG-20010904/DTD/svg10.dtd">
<svg version="1.0" xmlns="http://www.w3.org/2000/svg"
 width="1024.000000pt" height="1024.000000pt" viewBox="0 0 1024.000000 1024.000000"
 preserveAspectRatio="xMidYMid meet">

<g transform="translate(0.000000,1024.000000) scale(0.100000,-0.100000)"
fill="#000000" stroke="none">
<path d="M4820 9104 c-769 -71 -1464 -330 -2038 -761 -526 -395 -933 -896
-1201 -1479 -347 -755 -442 -1554 -285 -2394 180 -960 734 -1835 1530 -2415
280 -204 582 -366 884 -475 l105 -38 3 -151 3 -151 1304 0 1305 0 0 144 0 143
78 28 c230 81 569 255 797 408 305 205 626 498 854 777 182 223 394 568 516
839 490 1093 473 2334 -46 3373 -199 399 -408 688 -728 1009 -319 318 -617
535 -1009 732 -397 200 -803 325 -1262 388 -123 16 -218 21 -460 24 -168 1
-325 1 -350 -1z m-205 -1459 c192 -26 454 -30 694 -10 442 37 648 -4 802 -157
109 -110 164 -268 194 -558 18 -171 41 -270 94 -399 17 -41 31 -78 31 -82 0
-5 -27 -9 -61 -9 -55 0 -65 3 -100 34 -79 68 -248 91 -594 83 -292 -7 -420
-33 -511 -102 -32 -25 -42 -27 -152 -29 -106 -1 -120 0 -147 20 -120 87 -262
114 -597 114 -236 0 -389 -19 -473 -59 -33 -16 -72 -32 -87 -35 l-27 -6 13 42
c8 24 30 87 49 140 47 126 64 228 72 423 3 88 13 190 21 227 40 177 194 320
389 361 91 20 251 20 390 2z m-50 -1186 c119 -16 204 -46 242 -84 32 -32 34
-36 27 -87 -24 -200 -72 -346 -130 -398 -48 -42 -85 -48 -309 -55 -221 -7
-351 3 -409 30 -46 22 -87 82 -115 169 -27 81 -53 249 -49 317 3 53 4 54 48
76 25 13 77 27 115 32 101 12 490 13 580 0z m1452 1 c93 -13 167 -35 184 -57
18 -21 13 -132 -11 -253 -33 -170 -71 -244 -143 -282 -36 -19 -67 -23 -236
-32 -223 -11 -394 -1 -454 28 -21 11 -50 34 -63 52 -50 65 -104 271 -104 396
0 39 5 50 30 71 36 31 106 55 208 72 95 16 481 19 589 5z m-928 -140 c14 -7
22 -30 31 -92 29 -202 86 -356 149 -409 69 -57 114 -64 431 -64 245 0 293 3
342 18 76 23 125 67 160 145 29 64 78 246 78 292 0 14 4 31 9 38 9 15 151 35
177 25 8 -3 24 -23 35 -44 11 -23 27 -39 37 -39 10 0 44 22 75 49 106 89 204
95 286 18 48 -46 72 -108 78 -208 7 -108 -14 -207 -66 -315 -98 -202 -266
-293 -405 -219 -33 18 -48 21 -51 12 -3 -6 -19 -52 -36 -102 -85 -246 -220
-448 -440 -660 -205 -197 -421 -317 -671 -372 -67 -14 -125 -18 -303 -17 -206
0 -226 2 -318 27 -239 64 -447 197 -617 393 -107 124 -158 199 -211 306 -101
210 -130 393 -145 917 -7 243 -6 253 11 250 15 -3 22 -22 36 -100 45 -254 105
-356 236 -396 50 -16 97 -18 343 -18 302 0 328 3 400 50 68 43 135 213 163
415 l13 95 34 12 c37 14 108 10 139 -7z m-1525 -112 c3 -46 8 -184 12 -308 3
-124 12 -270 20 -324 8 -55 12 -102 9 -104 -11 -11 -87 33 -128 74 -96 94
-142 229 -142 414 1 187 35 264 140 311 76 35 82 30 89 -63z m2406 -1750 l13
-82 -84 -79 c-183 -172 -463 -319 -852 -448 -128 -42 -129 -43 -162 -25 -126
68 -299 256 -376 408 -21 43 -39 79 -39 82 0 2 31 -9 69 -25 150 -63 222 -74
486 -74 275 0 332 9 494 78 53 22 106 40 118 41 11 1 19 4 17 8 -2 4 22 21 53
38 32 17 99 60 148 95 50 36 93 65 96 65 4 0 12 -37 19 -82z m204 -123 l29
-23 -12 -74 c-29 -175 -173 -431 -494 -882 l-70 -98 -51 58 c-95 111 -261 275
-340 337 -43 34 -88 70 -100 79 -17 13 -18 17 -6 21 199 62 524 209 656 297
110 74 219 168 284 245 30 36 59 65 65 65 5 -1 23 -11 39 -25z m-1705 -285
c59 -89 180 -224 243 -270 l37 -27 -90 -54 c-107 -64 -232 -163 -312 -248 -32
-33 -60 -61 -62 -61 -5 0 2 316 10 445 7 114 36 274 61 335 l15 35 21 -35 c11
-19 46 -73 77 -120z m635 -450 c39 -27 86 -65 105 -84 l33 -34 -27 -39 c-15
-21 -24 -29 -21 -19 11 33 -77 153 -149 203 -27 20 -42 33 -32 29 11 -3 51
-28 91 -56z m-351 -38 c75 -41 130 -77 197 -128 60 -46 140 -129 140 -147 0
-5 8 -3 17 4 9 8 4 -5 -11 -28 -15 -23 -33 -44 -40 -46 -16 -6 -305 168 -363
218 -25 22 -49 42 -54 43 -5 2 -9 16 -9 32 0 20 9 36 33 54 17 14 34 26 35 26
2 0 27 -13 55 -28z m-209 -249 c16 -65 33 -126 38 -136 6 -12 2 -27 -14 -51
-13 -19 -41 -84 -63 -144 l-40 -111 -85 -3 -85 -3 -3 150 -4 150 41 61 c41 62
167 204 180 204 4 0 20 -53 35 -117z m927 -71 l78 -94 -45 -65 c-25 -36 -63
-99 -85 -139 l-41 -74 -103 0 c-90 0 -104 2 -108 18 -3 9 -13 53 -22 97 -10
44 -21 88 -27 98 -7 13 -1 25 27 54 20 20 68 88 108 149 l72 113 34 -32 c18
-18 69 -74 112 -125z m-684 -108 c-3 -3 -12 -4 -19 -1 -8 3 -5 6 6 6 11 1 17
-2 13 -5z m214 -54 c9 -14 20 -38 23 -55 7 -33 16 -25 -129 -108 l-70 -40
-127 -3 c-71 -1 -128 1 -128 4 1 13 25 38 42 44 9 4 45 27 80 51 34 24 95 58
133 75 39 17 84 38 100 46 38 20 53 17 76 -14z m-443 -853 l126 -377 32 102
c79 251 206 642 210 650 3 4 70 8 150 8 l144 0 0 -34 c0 -30 -4 -35 -30 -41
-39 -9 -59 -39 -62 -96 -4 -67 13 -630 22 -742 5 -54 14 -104 20 -112 7 -8 25
-15 40 -15 24 0 28 -4 32 -35 2 -20 2 -38 -1 -40 -2 -3 -89 -5 -193 -5 l-188
0 0 40 c0 39 1 40 33 40 21 0 41 8 52 20 16 17 17 42 16 262 -1 134 -4 252 -6
263 -2 11 -4 72 -5 135 -1 63 -3 111 -5 105 -2 -5 -61 -192 -131 -415 -70
-223 -131 -415 -137 -428 -9 -18 -17 -22 -44 -20 l-33 3 -96 280 c-53 154
-118 343 -144 420 l-48 140 -2 -80 c0 -44 -5 -196 -9 -338 -6 -160 -5 -271 0
-292 10 -36 34 -55 68 -55 18 0 21 -6 21 -40 l0 -40 -160 0 -160 0 0 40 0 40
40 0 c51 0 77 25 84 82 3 24 8 147 11 273 3 127 8 305 12 398 7 188 3 199 -63
211 -31 6 -34 10 -34 42 l0 35 157 -3 156 -3 125 -378z m1589 286 c-4 -54 -7
-128 -7 -165 l0 -68 -39 2 -39 1 -11 60 c-12 70 -38 117 -72 134 -13 7 -57 13
-96 13 l-73 0 0 -435 0 -436 25 -24 c18 -19 35 -25 70 -25 l45 0 0 -40 0 -40
-223 0 c-123 0 -226 2 -228 5 -3 2 -3 20 -1 40 4 33 6 35 42 35 22 0 47 8 61
19 l24 19 3 441 3 441 -85 0 c-75 0 -88 -3 -113 -24 -32 -27 -53 -83 -53 -140
0 -35 -1 -36 -39 -36 l-38 0 -6 68 c-4 37 -7 109 -7 160 l0 92 431 0 432 0 -6
-97z"/>
<path d="M4340 6819 c-80 -13 -200 -55 -253 -89 -76 -48 -137 -150 -89 -150 9
0 61 11 115 25 125 31 298 49 408 41 110 -8 134 1 150 53 16 54 -2 98 -47 117
-38 16 -195 17 -284 3z"/>
<path d="M5420 6817 c-34 -17 -52 -55 -46 -101 8 -68 14 -70 214 -73 147 -2
197 -7 297 -29 189 -41 175 -40 175 -13 0 56 -63 119 -163 163 -123 55 -410
87 -477 53z"/>
<path d="M4390 6339 c-47 -10 -86 -59 -102 -127 -27 -124 41 -252 135 -252 36
0 90 40 112 85 40 79 19 226 -38 274 -24 19 -69 28 -107 20z"/>
<path d="M5585 6336 c-61 -27 -94 -92 -95 -186 -1 -149 131 -240 221 -154 83
79 77 261 -11 325 -34 26 -79 32 -115 15z"/>
<path d="M4747 5659 c-23 -13 -47 -68 -47 -105 0 -127 269 -217 419 -139 24
12 31 22 31 44 0 38 -19 44 -91 31 -40 -7 -78 -7 -126 0 -58 9 -73 15 -101 45
l-33 36 18 30 c13 22 15 34 7 47 -13 20 -52 26 -77 11z"/>
<path d="M5345 5263 c-56 -10 -183 -16 -424 -19 -233 -3 -348 -8 -358 -15 -21
-18 -15 -57 18 -120 99 -186 362 -291 583 -234 167 44 316 174 357 312 10 36
10 46 -5 68 -19 29 -46 31 -171 8z m36 -136 c-39 -57 -78 -90 -155 -130 -59
-31 -64 -32 -191 -32 -127 0 -132 1 -196 32 -61 30 -159 117 -159 142 0 5 54
7 138 4 133 -5 466 10 547 26 22 4 42 6 43 5 2 -1 -10 -23 -27 -47z"/>
</g>
</svg>
